<?xml version="1.0" encoding="utf-8"?>
<svg width="96" height="96" viewBox="0 0 96 96" fill="none" xmlns="http://www.w3.org/2000/svg">
  <path d="M37.3543 10.2007L78.2317 23.4826L80.305 24.1561L80.3048 26.3361L80.3056 69.3175L80.3054 71.4975L35.2807 86.1269L34.0001 84.3631L8.73597 49.5903L7.45446 47.8267L8.73588 46.0632L33.9996 11.2907L35.281 9.52718L37.3543 10.2007Z" fill="#7D5645" stroke="#035246" stroke-width="6"/>
  <path d="M75.3047 27.7883L75.3053 67.8648L37.1906 80.249L13.6337 47.8264L37.1906 15.4044L75.3047 27.7883Z" fill="#7D5645" stroke="#EBF3EC" stroke-width="4"/>
  <path d="M41.3881 64.2603L39.7223 59.1335L42.1 58.3609L37.7447 44.957L35.3671 45.7295L33.7013 40.6027L46.5257 36.4358C49.6959 35.4058 52.2654 35.1733 54.2343 35.7383C56.2131 36.3002 57.5534 37.661 58.2551 39.8207C58.6253 40.9599 58.6713 42.0622 58.3931 43.1274C58.1248 44.1893 57.5363 45.1253 56.6275 45.9354C57.9149 46.0209 59.0352 46.4181 59.9884 47.127C60.9384 47.826 61.621 48.8145 62.0362 50.0925C62.7412 52.2621 62.491 54.1889 61.2858 55.8729C60.0773 57.547 57.9969 58.8637 55.0447 59.823L41.3881 64.2603ZM47.2367 41.7085L45.2455 42.3556L46.723 46.9028L48.7142 46.2558C50.5569 45.6571 51.232 44.5998 50.7395 43.0841C50.247 41.5683 49.0794 41.1098 47.2367 41.7085ZM49.6972 56.0567L52.0006 55.3083C53.9027 54.6903 54.5818 53.5441 54.0378 51.8699C53.4938 50.1956 52.2707 49.6675 50.3686 50.2855L48.0652 51.0339L49.6972 56.0567Z" fill="white"/>
</svg>